<svg width="446" height="102" viewBox="0 0 446 102" fill="none" xmlns="http://www.w3.org/2000/svg">
<path d="M17.8125 60.5938H32.4375C38.3125 60.5938 42.5156 59.1562 45.0469 56.2812C47.9531 52.9688 49.4062 49.1719 49.4062 44.8906C49.4062 39.8281 47.9062 35.7344 44.9062 32.6094C42.0938 29.7031 38.7188 28.25 34.7812 28.25C29.0312 28.25 24.4375 31.625 21 38.375C18.875 42.5625 17.8125 48.6406 17.8125 56.6094V60.5938ZM8.4375 93.875L8.4375 56.6094C8.4375 47.5156 9.9375 40.2188 12.9375 34.7188C18.1875 25.0938 25.4688 20.2812 34.7812 20.2812C42.5625 20.2812 48.7031 23.1562 53.2031 28.9062C56.9219 33.6562 58.7812 38.9844 58.7812 44.8906C58.7812 50.2656 56.8906 55.2812 53.1094 59.9375C50.6719 62.9375 47.6406 65.1562 44.0156 66.5938L60.375 89.9844L52.125 93.875H51.6562L33.9844 68.5625H17.8125V89.6562L8.90625 93.875H8.4375ZM87.5625 92C79.75 92 75.8438 88.6562 75.8438 81.9688V56.6094C75.8438 47.5156 77.3438 40.2188 80.3438 34.7188C85.5938 25.0938 92.875 20.2813 102.188 20.2813H114.75V20.75L111.234 28.25H102.188C96.375 28.25 91.7812 31.625 88.4062 38.375C86.6562 41.875 85.625 46.625 85.3125 52.625H111.938V53.0938L108.422 60.5938H85.2188V81.9688C85.2188 83.3438 86 84.0312 87.5625 84.0312H106.031C109.719 84.0312 112.031 82.2031 112.969 78.5469H113.438L120.469 81.875C118.594 88.625 113.781 92 106.031 92H87.5625ZM132.891 91.25C131.797 90.125 131.25 88.7812 131.25 87.2188C131.25 85.625 131.797 84.2656 132.891 83.1406C133.984 82.0156 135.312 81.4531 136.875 81.4531C138.438 81.4531 139.766 82.0156 140.859 83.1406C141.953 84.2656 142.5 85.625 142.5 87.2188C142.5 88.7812 141.953 90.125 140.859 91.25C139.766 92.375 138.438 92.9375 136.875 92.9375C135.312 92.9375 133.984 92.375 132.891 91.25Z" fill="#37563D"/>
<path d="M209.344 69.7812C208.75 72.7812 207.688 75.6875 206.156 78.5C200.906 88.125 193.625 92.9375 184.312 92.9375C175 92.9375 167.719 88.125 162.469 78.5C159.469 73 157.969 65.7031 157.969 56.6094C157.969 47.5156 159.469 40.2188 162.469 34.7188C167.719 25.0938 175 20.2813 184.312 20.2813C193.656 20.2813 200.938 25.0938 206.156 34.7188L198.562 38.375H198.094C194.719 31.625 190.125 28.25 184.312 28.25C178.531 28.25 173.938 31.625 170.531 38.375C168.406 42.5938 167.344 48.6719 167.344 56.6094C167.344 64.6406 168.406 70.7188 170.531 74.8438C174 81.5938 178.594 84.9688 184.312 84.9688C190.094 84.9688 194.688 81.5938 198.094 74.8438L208.875 69.7812H209.344ZM260.531 93.875V67.1562C256.594 71.7188 251.672 74 245.766 74C237.703 74 231.172 70.8125 226.172 64.4375C222.453 59.6875 220.594 53.9688 220.594 47.2813C220.594 40.0938 222.484 34.0313 226.266 29.0938C229.422 24.9688 232.969 21.7188 236.906 19.3438H237.375L240.891 26.3281C238.172 28.1719 235.984 30.3125 234.328 32.75C231.422 37.0313 229.969 41.875 229.969 47.2813C229.969 52.8438 231.5 57.3594 234.562 60.8281C237.656 64.2969 241.391 66.0312 245.766 66.0312C249.984 66.0312 253.516 64.4062 256.359 61.1563C259.141 57.9688 260.531 54.2813 260.531 50.0938V23.5625L269.438 19.3438H269.906V89.6562L261 93.875H260.531ZM337.688 69.7812C337.094 72.7812 336.031 75.6875 334.5 78.5C329.25 88.125 321.969 92.9375 312.656 92.9375C303.344 92.9375 296.062 88.125 290.812 78.5C287.812 73 286.312 65.7031 286.312 56.6094C286.312 47.5156 287.812 40.2188 290.812 34.7188C296.062 25.0938 303.344 20.2813 312.656 20.2813C322 20.2813 329.281 25.0938 334.5 34.7188L326.906 38.375H326.438C323.062 31.625 318.469 28.25 312.656 28.25C306.875 28.25 302.281 31.625 298.875 38.375C296.75 42.5938 295.688 48.6719 295.688 56.6094C295.688 64.6406 296.75 70.7188 298.875 74.8438C302.344 81.5938 306.938 84.9688 312.656 84.9688C318.438 84.9688 323.031 81.5938 326.438 74.8438L337.219 69.7812H337.688ZM364.406 92C356.594 92 352.688 88.6563 352.688 81.9688V23.5625L361.594 19.3438H362.062V81.9688C362.062 83.3438 362.844 84.0313 364.406 84.0313H380.578C384.266 84.0313 386.578 82.2031 387.516 78.5469H387.984L395.016 81.875C393.141 88.625 388.328 92 380.578 92H364.406ZM410.719 92C402.906 92 399 88.6563 399 81.9688V56.6094C399 47.5156 400.5 40.2188 403.5 34.7188C408.75 25.0938 416.031 20.2813 425.344 20.2813L437.906 20.2813V20.75L434.391 28.25L425.344 28.25C419.531 28.25 414.938 31.625 411.562 38.375C409.812 41.875 408.781 46.625 408.469 52.625H435.094V53.0938L431.578 60.5938H408.375V81.9688C408.375 83.3438 409.156 84.0313 410.719 84.0313H429.188C432.875 84.0313 435.188 82.2031 436.125 78.5469H436.594L443.625 81.875C441.75 88.625 436.938 92 429.188 92H410.719Z" fill="#7CBA29"/>
</svg>
